<?xml version="1.0" encoding="UTF-8"?>
<svg width="682px" height="489px" viewBox="0 0 682 489" version="1.1" xmlns="http://www.w3.org/2000/svg" xmlns:xlink="http://www.w3.org/1999/xlink">
    <!-- Generator: Sketch 51.3 (57544) - http://www.bohemiancoding.com/sketch -->
    <title>Group 2</title>
    <desc>Created with Sketch.</desc>
    <defs></defs>
    <g id="Page-1" stroke="none" stroke-width="1" fill="none" fill-rule="evenodd">
        <g id="pizza" transform="translate(4.000000, 0.000000)">
            <g id="Group-2">
                <circle id="Oval" fill="#FF9811" fill-rule="nonzero" cx="339.5" cy="244.5" r="236.5"></circle>
                <circle id="Oval" fill="#FFDA44" fill-rule="nonzero" cx="339" cy="244" r="197"></circle>
                <path d="M178,83 L501,406" id="Shape" fill="#FF5023" fill-rule="nonzero"></path>
                <path d="M178,406 L501,83" id="Shape" fill="#FF5023" fill-rule="nonzero"></path>
                <circle id="Oval" fill="#AB2300" fill-rule="nonzero" cx="284.5" cy="110.5" r="31.5"></circle>
                <circle id="Oval" fill="#FF5023" fill-rule="nonzero" cx="198" cy="174" r="16"></circle>
                <circle id="Oval" fill="#FF5023" fill-rule="nonzero" cx="245" cy="205" r="16"></circle>
                <circle id="Oval" fill="#AB2300" fill-rule="nonzero" cx="209.5" cy="303.5" r="31.5"></circle>
                <circle id="Oval" fill="#FF5023" fill-rule="nonzero" cx="273" cy="391" r="16"></circle>
                <circle id="Oval" fill="#FF5023" fill-rule="nonzero" cx="304" cy="343" r="16"></circle>
                <circle id="Oval" fill="#AB2300" fill-rule="nonzero" cx="394.5" cy="378.5" r="31.5"></circle>
                <circle id="Oval" fill="#FF5023" fill-rule="nonzero" cx="482" cy="316" r="16"></circle>
                <circle id="Oval" fill="#FF5023" fill-rule="nonzero" cx="434" cy="284" r="16"></circle>
                <circle id="Oval" fill="#AB2300" fill-rule="nonzero" cx="469.5" cy="185.5" r="31.5"></circle>
                <circle id="Oval" fill="#FF5023" fill-rule="nonzero" cx="407" cy="99" r="16"></circle>
                <circle id="Oval" fill="#FF5023" fill-rule="nonzero" cx="375" cy="146" r="16"></circle>
                <path d="M339.5,0 C204.466379,-1.57615856e-14 95,109.466379 95,244.5 C95,379.533621 204.466379,489 339.5,489 C474.533621,489 584,379.533621 584,244.5 C583.847871,109.529443 474.470557,0.152128621 339.5,0 Z M568.028629,236.612903 L544.367339,236.612903 C542.517811,187.721171 523.181573,141.117172 489.875387,105.276968 L506.603919,88.5484355 C544.33984,128.832298 566.166933,181.446579 568.028629,236.612903 Z M478.723032,94.1246129 C442.882828,60.8184267 396.278829,41.482189 347.387097,39.6326613 L347.387097,15.971371 C402.553421,17.8330672 455.167702,39.6601604 495.451565,77.3960806 L478.723032,94.1246129 Z M331.612903,225.460548 L211.421435,105.269081 C244.300405,74.9145936 286.902083,57.2410054 331.612903,55.4068548 L331.612903,225.460548 Z M331.612903,433.593145 C286.902083,431.758995 244.300405,414.085406 211.421435,383.730919 L331.612903,263.539452 L331.612903,433.593145 Z M347.387097,263.539452 L467.578565,383.730919 C434.699595,414.085406 392.097917,431.758995 347.387097,433.593145 L347.387097,263.539452 Z M347.387097,55.4068548 C392.097917,57.2410054 434.699595,74.9145936 467.578565,105.269081 L347.387097,225.460548 L347.387097,55.4068548 Z M331.612903,39.6326613 C282.721171,41.482189 236.117172,60.8184267 200.276968,94.1246129 L183.548435,77.3960806 C223.832298,39.6601604 276.446579,17.8330672 331.612903,15.971371 L331.612903,39.6326613 Z M320.460548,236.612903 L150.406855,236.612903 C152.241005,191.902083 169.914594,149.300405 200.269081,116.421435 L320.460548,236.612903 Z M320.460548,252.387097 L200.269081,372.578565 C169.914594,339.699595 152.241005,297.097917 150.406855,252.387097 L320.460548,252.387097 Z M200.276968,394.875387 C236.117172,428.181573 282.721171,447.517811 331.612903,449.367339 L331.612903,473.028629 C276.446579,471.166933 223.832298,449.33984 183.548435,411.603919 L200.276968,394.875387 Z M347.387097,449.367339 C396.278829,447.517811 442.882828,428.181573 478.723032,394.875387 L495.451565,411.603919 C455.167702,449.33984 402.553421,471.166933 347.387097,473.028629 L347.387097,449.367339 Z M358.539452,252.387097 L528.593145,252.387097 C526.758995,297.097917 509.085406,339.699595 478.730919,372.578565 L358.539452,252.387097 Z M358.539452,236.612903 L478.730919,116.421435 C509.085406,149.300405 526.758995,191.902083 528.593145,236.612903 L358.539452,236.612903 Z M172.403968,88.5484355 L189.1325,105.276968 C155.82344,141.116015 136.48435,187.720142 134.632661,236.612903 L110.971371,236.612903 C112.833067,181.446579 134.66016,128.832298 172.396081,88.5484355 L172.403968,88.5484355 Z M110.971371,252.387097 L134.632661,252.387097 C136.482189,301.278829 155.818427,347.882828 189.124613,383.723032 L172.396081,400.451565 C134.66016,360.167702 112.833067,307.553421 110.971371,252.387097 Z M506.603919,400.451565 L489.875387,383.723032 C523.181573,347.882828 542.517811,301.278829 544.367339,252.387097 L568.028629,252.387097 C566.166933,307.553421 544.33984,360.167702 506.603919,400.451565 Z" id="Shape" fill="#1F0F02" fill-rule="nonzero"></path>
                <path d="M284.290323,149.854839 C306.069939,149.854839 323.725806,132.198971 323.725806,110.419355 C323.725806,88.6397385 306.069939,70.983871 284.290323,70.983871 C262.510706,70.983871 244.854839,88.6397385 244.854839,110.419355 C244.880914,132.188161 262.521516,149.828763 284.290323,149.854839 Z M284.290323,86.7580645 C297.358092,86.7580645 307.951613,97.351585 307.951613,110.419355 C307.951613,123.487125 297.358092,134.080645 284.290323,134.080645 C271.222553,134.080645 260.629032,123.487125 260.629032,110.419355 C260.629032,97.351585 271.222553,86.7580645 284.290323,86.7580645 Z" id="Shape" fill="#231F20" fill-rule="nonzero"></path>
                <path d="M197.532258,197.177419 C210.600028,197.177419 221.193548,186.583899 221.193548,173.516129 C221.193548,160.448359 210.600028,149.854839 197.532258,149.854839 C184.464488,149.854839 173.870968,160.448359 173.870968,173.516129 C173.870968,186.583899 184.464488,197.177419 197.532258,197.177419 Z M197.532258,165.629032 C201.888181,165.629032 205.419355,169.160206 205.419355,173.516129 C205.419355,177.872052 201.888181,181.403226 197.532258,181.403226 C193.176335,181.403226 189.645161,177.872052 189.645161,173.516129 C189.645161,169.160206 193.176335,165.629032 197.532258,165.629032 Z" id="Shape" fill="#231F20" fill-rule="nonzero"></path>
                <path d="M244.854839,228.725806 C257.922609,228.725806 268.516129,218.132286 268.516129,205.064516 C268.516129,191.996746 257.922609,181.403226 244.854839,181.403226 C231.787069,181.403226 221.193548,191.996746 221.193548,205.064516 C221.193548,218.132286 231.787069,228.725806 244.854839,228.725806 Z M244.854839,197.177419 C249.210762,197.177419 252.741935,200.708593 252.741935,205.064516 C252.741935,209.420439 249.210762,212.951613 244.854839,212.951613 C240.498915,212.951613 236.967742,209.420439 236.967742,205.064516 C236.967742,200.708593 240.498915,197.177419 244.854839,197.177419 Z" id="Shape" fill="#231F20" fill-rule="nonzero"></path>
                <path d="M209.362903,343.08871 C231.14252,343.08871 248.798387,325.432842 248.798387,303.653226 C248.798387,281.873609 231.14252,264.217742 209.362903,264.217742 C187.583287,264.217742 169.927419,281.873609 169.927419,303.653226 C169.953495,325.422032 187.594097,343.062634 209.362903,343.08871 Z M209.362903,279.991935 C222.430673,279.991935 233.024194,290.585456 233.024194,303.653226 C233.024194,316.720996 222.430673,327.314516 209.362903,327.314516 C196.295133,327.314516 185.701613,316.720996 185.701613,303.653226 C185.701613,290.585456 196.295133,279.991935 209.362903,279.991935 Z" id="Shape" fill="#231F20" fill-rule="nonzero"></path>
                <path d="M272.459677,414.072581 C285.527447,414.072581 296.120968,403.47906 296.120968,390.41129 C296.120968,377.343521 285.527447,366.75 272.459677,366.75 C259.391908,366.75 248.798387,377.343521 248.798387,390.41129 C248.798387,403.47906 259.391908,414.072581 272.459677,414.072581 Z M272.459677,382.524194 C276.815601,382.524194 280.346774,386.055367 280.346774,390.41129 C280.346774,394.767214 276.815601,398.298387 272.459677,398.298387 C268.103754,398.298387 264.572581,394.767214 264.572581,390.41129 C264.572581,386.055367 268.103754,382.524194 272.459677,382.524194 Z" id="Shape" fill="#231F20" fill-rule="nonzero"></path>
                <path d="M304.008065,366.75 C317.075834,366.75 327.669355,356.156479 327.669355,343.08871 C327.669355,330.02094 317.075834,319.427419 304.008065,319.427419 C290.940295,319.427419 280.346774,330.02094 280.346774,343.08871 C280.346774,356.156479 290.940295,366.75 304.008065,366.75 Z M304.008065,335.201613 C308.363988,335.201613 311.895161,338.732786 311.895161,343.08871 C311.895161,347.444633 308.363988,350.975806 304.008065,350.975806 C299.652141,350.975806 296.120968,347.444633 296.120968,343.08871 C296.120968,338.732786 299.652141,335.201613 304.008065,335.201613 Z" id="Shape" fill="#231F20" fill-rule="nonzero"></path>
                <path d="M189.645161,212.951613 L181.758065,212.951613 C177.402141,212.951613 173.870968,216.482786 173.870968,220.83871 C173.870968,225.194633 177.402141,228.725806 181.758065,228.725806 L189.645161,228.725806 C194.001085,228.725806 197.532258,225.194633 197.532258,220.83871 C197.532258,216.482786 194.001085,212.951613 189.645161,212.951613 Z" id="Shape" fill="#231F20" fill-rule="nonzero"></path>
                <path d="M315.83871,157.741935 L307.951613,157.741935 C303.59569,157.741935 300.064516,161.273109 300.064516,165.629032 C300.064516,169.984956 303.59569,173.516129 307.951613,173.516129 L315.83871,173.516129 C320.194633,173.516129 323.725806,169.984956 323.725806,165.629032 C323.725806,161.273109 320.194633,157.741935 315.83871,157.741935 Z" id="Shape" fill="#231F20" fill-rule="nonzero"></path>
                <path d="M268.516129,283.935484 L276.403226,283.935484 C280.759149,283.935484 284.290323,280.40431 284.290323,276.048387 C284.290323,271.692464 280.759149,268.16129 276.403226,268.16129 L268.516129,268.16129 C264.160206,268.16129 260.629032,271.692464 260.629032,276.048387 C260.629032,280.40431 264.160206,283.935484 268.516129,283.935484 Z" id="Shape" fill="#231F20" fill-rule="nonzero"></path>
                <path d="M310.262532,380.891565 L302.375435,388.778661 C300.325133,390.75891 299.502855,393.69136 300.224647,396.448921 C300.946438,399.206482 303.09997,401.360014 305.857531,402.081805 C308.615092,402.803596 311.547542,401.981319 313.52779,399.931016 L321.414887,392.043919 C324.403878,388.949189 324.361131,384.02996 321.318811,380.987641 C318.276491,377.945321 313.357263,377.902574 310.262532,380.891565 Z" id="Shape" fill="#231F20" fill-rule="nonzero"></path>
                <path d="M394.709677,339.145161 C372.930061,339.145161 355.274194,356.801029 355.274194,378.580645 C355.274194,400.360262 372.930061,418.016129 394.709677,418.016129 C416.489294,418.016129 434.145161,400.360262 434.145161,378.580645 C434.119086,356.811839 416.478484,339.171237 394.709677,339.145161 Z M394.709677,402.241935 C381.641908,402.241935 371.048387,391.648415 371.048387,378.580645 C371.048387,365.512875 381.641908,354.919355 394.709677,354.919355 C407.777447,354.919355 418.370968,365.512875 418.370968,378.580645 C418.370968,391.648415 407.777447,402.241935 394.709677,402.241935 Z" id="Shape" fill="#231F20" fill-rule="nonzero"></path>
                <path d="M481.467742,291.822581 C468.399972,291.822581 457.806452,302.416101 457.806452,315.483871 C457.806452,328.551641 468.399972,339.145161 481.467742,339.145161 C494.535512,339.145161 505.129032,328.551641 505.129032,315.483871 C505.129032,302.416101 494.535512,291.822581 481.467742,291.822581 Z M481.467742,323.370968 C477.111819,323.370968 473.580645,319.839794 473.580645,315.483871 C473.580645,311.127948 477.111819,307.596774 481.467742,307.596774 C485.823665,307.596774 489.354839,311.127948 489.354839,315.483871 C489.354839,319.839794 485.823665,323.370968 481.467742,323.370968 Z" id="Shape" fill="#231F20" fill-rule="nonzero"></path>
                <path d="M434.145161,260.274194 C421.077391,260.274194 410.483871,270.867714 410.483871,283.935484 C410.483871,297.003254 421.077391,307.596774 434.145161,307.596774 C447.212931,307.596774 457.806452,297.003254 457.806452,283.935484 C457.806452,270.867714 447.212931,260.274194 434.145161,260.274194 Z M434.145161,291.822581 C429.789238,291.822581 426.258065,288.291407 426.258065,283.935484 C426.258065,279.579561 429.789238,276.048387 434.145161,276.048387 C438.501085,276.048387 442.032258,279.579561 442.032258,283.935484 C442.032258,288.291407 438.501085,291.822581 434.145161,291.822581 Z" id="Shape" fill="#231F20" fill-rule="nonzero"></path>
                <path d="M469.637097,145.91129 C447.85748,145.91129 430.201613,163.567158 430.201613,185.346774 C430.201613,207.126391 447.85748,224.782258 469.637097,224.782258 C491.416713,224.782258 509.072581,207.126391 509.072581,185.346774 C509.046505,163.577968 491.405903,145.937366 469.637097,145.91129 Z M469.637097,209.008065 C456.569327,209.008065 445.975806,198.414544 445.975806,185.346774 C445.975806,172.279004 456.569327,161.685484 469.637097,161.685484 C482.704867,161.685484 493.298387,172.279004 493.298387,185.346774 C493.298387,198.414544 482.704867,209.008065 469.637097,209.008065 Z" id="Shape" fill="#231F20" fill-rule="nonzero"></path>
                <path d="M406.540323,74.9274194 C393.472553,74.9274194 382.879032,85.5209399 382.879032,98.5887097 C382.879032,111.656479 393.472553,122.25 406.540323,122.25 C419.608092,122.25 430.201613,111.656479 430.201613,98.5887097 C430.201613,85.5209399 419.608092,74.9274194 406.540323,74.9274194 Z M406.540323,106.475806 C402.184399,106.475806 398.653226,102.944633 398.653226,98.5887097 C398.653226,94.2327864 402.184399,90.7016129 406.540323,90.7016129 C410.896246,90.7016129 414.427419,94.2327864 414.427419,98.5887097 C414.427419,102.944633 410.896246,106.475806 406.540323,106.475806 Z" id="Shape" fill="#231F20" fill-rule="nonzero"></path>
                <path d="M374.991935,122.25 C361.924166,122.25 351.330645,132.843521 351.330645,145.91129 C351.330645,158.97906 361.924166,169.572581 374.991935,169.572581 C388.059705,169.572581 398.653226,158.97906 398.653226,145.91129 C398.653226,132.843521 388.059705,122.25 374.991935,122.25 Z M374.991935,153.798387 C370.636012,153.798387 367.104839,150.267214 367.104839,145.91129 C367.104839,141.555367 370.636012,138.024194 374.991935,138.024194 C379.347859,138.024194 382.879032,141.555367 382.879032,145.91129 C382.879032,150.267214 379.347859,153.798387 374.991935,153.798387 Z" id="Shape" fill="#231F20" fill-rule="nonzero"></path>
                <path d="M489.354839,276.048387 L497.241935,276.048387 C501.597859,276.048387 505.129032,272.517214 505.129032,268.16129 C505.129032,263.805367 501.597859,260.274194 497.241935,260.274194 L489.354839,260.274194 C484.998915,260.274194 481.467742,263.805367 481.467742,268.16129 C481.467742,272.517214 484.998915,276.048387 489.354839,276.048387 Z" id="Shape" fill="#231F20" fill-rule="nonzero"></path>
                <path d="M363.16129,331.258065 L371.048387,331.258065 C375.40431,331.258065 378.935484,327.726891 378.935484,323.370968 C378.935484,319.015044 375.40431,315.483871 371.048387,315.483871 L363.16129,315.483871 C358.805367,315.483871 355.274194,319.015044 355.274194,323.370968 C355.274194,327.726891 358.805367,331.258065 363.16129,331.258065 Z" id="Shape" fill="#231F20" fill-rule="nonzero"></path>
                <path d="M410.483871,205.064516 L402.596774,205.064516 C398.240851,205.064516 394.709677,208.59569 394.709677,212.951613 C394.709677,217.307536 398.240851,220.83871 402.596774,220.83871 L410.483871,220.83871 C414.839794,220.83871 418.370968,217.307536 418.370968,212.951613 C418.370968,208.59569 414.839794,205.064516 410.483871,205.064516 Z" id="Shape" fill="#231F20" fill-rule="nonzero"></path>
                <path d="M363.16129,110.419355 C365.252907,110.418908 367.258694,109.587656 368.737468,108.108435 L376.624565,100.221339 C379.613555,97.1266085 379.570808,92.2073797 376.528488,89.1650599 C373.486169,86.1227401 368.56694,86.0799934 365.47221,89.0689839 L357.585113,96.9560806 C355.33013,99.211745 354.655672,102.603531 355.876153,105.550292 C357.096633,108.497052 359.971781,110.418674 363.16129,110.419355 Z" id="Shape" fill="#231F20" fill-rule="nonzero"></path>
                <path d="M32.9804688,364.589844 C71.7278646,364.589844 92.0065104,364.589844 93.8164062,364.589844 L64.7929688,402.320312 L93.8164062,440.050781 L1.37890625,440.050781 L32.9804688,402.320312 C28.8852281,405.748505 25.2576239,405.748505 22.0976562,402.320312 C10.2956264,389.5165 5.33578015,364.589844 32.9804688,364.589844 Z" id="Path-2" stroke="#000000" stroke-width="4" fill="#305A00" fill-rule="nonzero" transform="translate(47.597656, 402.320312) rotate(179.000000) translate(-47.597656, -402.320312) "></path>
                <path d="M612.601562,364 C651.348958,364 671.627604,364 673.4375,364 L644.414062,401.730469 L673.4375,439.460938 L581,439.460938 L612.601562,401.730469 C608.506322,405.158662 604.878718,405.158662 601.71875,401.730469 C589.91672,388.926656 584.956874,364 612.601562,364 Z" id="Path-2" stroke="#000000" stroke-width="4" fill="#305A00" fill-rule="nonzero"></path>
                <rect id="Rectangle" stroke="#000000" stroke-width="5" fill="#305A00" fill-rule="nonzero" x="62.5" y="284.5" width="550" height="121"></rect>
                <polygon id="Triangle" fill="#000000" fill-rule="nonzero" transform="translate(593.635367, 414.334517) rotate(69.000000) translate(-593.635367, -414.334517) " points="593.635367 391.834517 612.135367 436.834517 575.135367 436.834517"></polygon>
                <text id="Pizza-La-Paz" stroke="#000000" stroke-width="2" font-family="ArchivoBlack-Regular, Archivo Black" font-size="64" font-weight="700" letter-spacing="-0.6718822" fill="#FFFFFF">
                    <tspan x="106" y="371">PIZZA LA PAZ</tspan>
                </text>
                <polygon id="Triangle" fill="#000000" fill-rule="nonzero" transform="translate(87.635367, 415.334517) rotate(69.000000) translate(-87.635367, -415.334517) " points="87.6353667 392.834517 106.135367 437.834517 69.1353667 437.834517"></polygon>
            </g>
        </g>
    </g>
</svg>